<?xml version="1.0" standalone="no"?>
<!DOCTYPE svg PUBLIC "-//W3C//DTD SVG 20010904//EN"
 "http://www.w3.org/TR/2001/REC-SVG-20010904/DTD/svg10.dtd">
<svg version="1.0" xmlns="http://www.w3.org/2000/svg"
 width="700.000000pt" height="700.000000pt" viewBox="0 0 700.000000 700.000000"
 preserveAspectRatio="xMidYMid meet">
<metadata>
Created by potrace 1.14, written by Peter Selinger 2001-2017
</metadata>
<g transform="translate(0.000000,700.000000) scale(0.100000,-0.100000)"
fill="#000000" stroke="none">
<path d="M2057 6564 c-1 -1 -60 -4 -132 -8 -227 -10 -420 -40 -632 -96 -148
-39 -205 -61 -373 -138 -93 -43 -221 -132 -296 -207 -133 -133 -185 -249 -185
-416 1 -52 0 -1079 -1 -2284 -1 -2019 0 -2195 16 -2255 63 -243 311 -446 709
-580 129 -43 313 -87 447 -106 19 -3 46 -7 60 -9 14 -2 57 -6 95 -10 39 -3 93
-8 120 -10 55 -5 364 -6 435 -1 61 4 202 18 220 21 8 2 38 6 65 9 376 50 760
205 959 387 30 27 56 49 60 49 3 0 23 -19 45 -43 118 -128 390 -270 651 -340
274 -74 589 -103 900 -82 145 10 220 20 350 46 537 108 907 364 980 679 10 42
13 321 13 1275 0 1148 -1 1222 -17 1257 -19 38 -70 78 -101 78 -9 0 -58 42
-109 93 -100 102 -177 160 -304 231 -168 92 -427 178 -607 202 -27 3 -53 8
-56 10 -30 18 -455 26 -605 11 -120 -11 -347 -60 -470 -102 -182 -61 -361
-154 -480 -251 l-42 -33 -1 802 c0 441 -1 859 -1 928 0 84 -6 145 -16 180 -50
172 -206 335 -434 456 -204 107 -524 201 -780 228 -36 4 -73 9 -83 10 -33 7
-394 23 -400 19z m378 -309 c22 -3 85 -13 140 -21 55 -8 120 -20 145 -25 25
-6 53 -12 64 -15 58 -11 144 -39 301 -98 54 -20 159 -78 222 -122 106 -76 173
-172 173 -250 0 -144 -198 -310 -493 -413 -130 -46 -322 -92 -442 -106 -27 -3
-61 -8 -75 -10 -136 -25 -563 -24 -740 1 -291 41 -502 99 -670 184 -266 133
-374 279 -311 423 23 53 100 136 174 186 141 96 462 212 656 236 24 3 47 7 50
9 3 2 35 7 71 11 36 4 94 11 130 15 72 8 542 5 605 -5z m-1681 -1034 c13 -21
175 -107 284 -151 104 -41 232 -83 287 -94 11 -2 38 -9 60 -15 22 -5 54 -12
70 -15 17 -3 55 -10 85 -16 30 -6 78 -13 105 -16 28 -3 55 -7 62 -9 72 -24
661 -25 788 -1 11 2 45 7 75 10 300 37 625 143 840 275 36 21 67 38 68 36 2
-2 3 -150 3 -330 l-1 -326 -25 -49 c-79 -156 -365 -313 -700 -386 -123 -27
-148 -32 -202 -39 -23 -3 -57 -8 -75 -10 -197 -27 -571 -25 -778 5 -41 5 -93
13 -115 16 -68 9 -265 61 -360 94 -127 45 -249 106 -325 164 -83 63 -116 99
-146 161 -24 50 -24 52 -24 378 0 299 4 351 24 318z m88 -1168 c141 -83 358
-162 563 -207 121 -26 140 -29 230 -42 28 -3 58 -8 67 -10 105 -18 507 -25
683 -12 397 32 772 140 1025 296 36 22 66 39 68 37 2 -2 3 -165 2 -363 -1
-395 -2 -411 -63 -527 -39 -73 -178 -216 -267 -274 -216 -141 -518 -238 -835
-268 -93 -9 -331 -9 -425 1 -105 10 -270 38 -340 56 -188 51 -363 127 -502
221 -89 60 -217 192 -255 265 -60 112 -63 141 -63 537 l0 359 26 -17 c15 -9
53 -33 86 -52z m4418 -17 c19 -3 55 -8 79 -11 80 -10 219 -44 325 -79 281 -94
489 -251 573 -433 24 -50 28 -70 27 -153 0 -82 -4 -103 -27 -152 -61 -128
-169 -234 -335 -328 -337 -190 -849 -256 -1293 -165 -411 83 -721 280 -810
513 -16 43 -21 78 -21 140 1 74 4 92 35 155 66 137 197 256 385 347 91 45 224
96 275 106 10 2 27 6 37 9 10 3 28 8 40 10 12 2 29 6 38 9 9 3 33 7 52 10 19
3 45 8 57 10 12 3 50 8 85 11 34 4 64 8 66 10 5 5 375 -3 412 -9z m-4364
-1324 c245 -166 581 -278 954 -318 84 -10 395 -11 490 -2 424 37 834 190 1088
405 l52 45 0 -279 c0 -307 -4 -335 -63 -448 -41 -77 -178 -216 -277 -280 -175
-113 -423 -204 -671 -244 -207 -34 -496 -34 -724 -1 -402 60 -775 256 -930
490 -78 118 -79 126 -83 464 l-3 298 53 -44 c29 -25 80 -64 114 -86z m5363
-470 c-43 -208 -266 -432 -539 -542 -30 -12 -68 -28 -85 -35 -46 -20 -185 -57
-265 -70 -25 -4 -54 -9 -65 -11 -57 -12 -177 -18 -320 -17 -239 1 -450 44
-655 131 -79 33 -218 107 -230 121 -3 3 -30 25 -61 48 -109 83 -205 211 -240
321 -20 61 -22 90 -23 325 -1 141 0 257 2 257 2 0 34 -22 71 -49 243 -176 584
-295 941 -329 144 -13 489 -6 574 13 11 2 35 6 51 9 170 23 412 99 568 177 75
38 218 130 255 164 l27 25 3 -242 c1 -149 -2 -264 -9 -296z m-5459 -570 c53
-48 199 -138 304 -188 232 -109 471 -174 751 -201 151 -15 440 -9 605 12 373
47 767 209 983 403 l37 34 0 -246 c0 -284 -3 -298 -88 -384 -139 -142 -380
-250 -705 -316 -210 -42 -316 -51 -597 -51 -241 1 -298 5 -485 36 -354 60
-636 177 -781 324 -92 93 -94 103 -94 390 l0 248 23 -20 c12 -11 33 -29 47
-41z m3040 -21 c45 -41 213 -147 293 -185 150 -72 315 -126 457 -152 14 -3 32
-7 40 -9 15 -4 29 -6 175 -24 69 -9 431 -7 470 2 20 5 62 12 140 23 78 11 271
65 360 100 170 68 314 151 432 251 l63 54 0 -232 c0 -143 -4 -246 -11 -269
-16 -53 -74 -126 -144 -183 -179 -144 -474 -245 -830 -284 -89 -10 -448 -10
-540 0 -457 50 -846 229 -947 435 -21 45 -22 59 -23 289 l-1 243 21 -19 c11
-10 31 -28 45 -40z"/>
</g>
</svg>
